<?xml version="1.0" ?><!DOCTYPE svg  PUBLIC '-//W3C//DTD SVG 1.1//EN'  'http://www.w3.org/Graphics/SVG/1.1/DTD/svg11.dtd'><svg enable-background="new 0 0 128 128" height="128px" id="Layer_1" version="1.1" viewBox="0 0 128 128" width="128px" xml:space="preserve" xmlns="http://www.w3.org/2000/svg" xmlns:xlink="http://www.w3.org/1999/xlink"><g><rect fill="#CC191E" height="128" width="128"/></g><path d="M107.122,46.405c0,0-0.86-6.064-3.499-8.733c-3.348-3.506-7.098-3.523-8.816-3.728  c-12.312-0.891-30.787-0.891-30.787-0.891h-0.04c0,0-18.474,0-30.787,0.891c-1.721,0.204-5.469,0.221-8.816,3.728  c-2.639,2.669-3.498,8.733-3.498,8.733S20,53.525,20,60.647v6.677c0,7.119,0.879,14.242,0.879,14.242s0.859,6.062,3.498,8.732  c3.348,3.508,7.745,3.396,9.702,3.764c7.041,0.676,29.922,0.885,29.922,0.885s18.49-0.027,30.806-0.918  c1.721-0.205,5.471-0.223,8.817-3.729c2.64-2.672,3.499-8.734,3.499-8.734S108,74.445,108,67.324v-6.677  C108,53.525,107.122,46.405,107.122,46.405 M53.802,76.57l-0.003-27.039l26,13.565L53.802,76.57z" fill="#FFFFFF"/></svg>